Coordinates
version=1
nRows=11
nColumns=36
inDegrees=yes

Units are S.I. units (second, meters, Newtons, ...)
If the header above contains a line with 'inDegrees', this indicates whether rotational values are in degrees (yes) or radians (no).

endheader
time	pelvis_tilt	pelvis_list	pelvis_rotation	pelvis_tx	pelvis_ty	pelvis_tz	hip_flexion_r	hip_adduction_r	hip_rotation_r	knee_angle_r	knee_angle_r_beta	ankle_angle_r	subtalar_angle_r	mtp_angle_r	hip_flexion_l	hip_adduction_l	hip_rotation_l	knee_angle_l	knee_angle_l_beta	ankle_angle_l	subtalar_angle_l	mtp_angle_l	lumbar_extension	lumbar_bending	lumbar_rotation	arm_flex_r	arm_add_r	arm_rot_r	elbow_flex_r	pro_sup_r	arm_flex_l	arm_add_l	arm_rot_l	elbow_flex_l	pro_sup_l
      1.16666670	    -20.03158343	      1.24295221	      0.92107106	     -0.84998663	      1.07147046	     -0.06425743	     43.93511642	     -3.81478272	     -0.73881166	     77.74765512	      1.35695257	     46.42004890	    -13.06422390	     -7.49999987	     46.65775516	     -1.81526567	     -1.35719494	     78.91197505	      1.37727378	     40.75172457	    -14.44893982	     -7.49999987	    -26.82597207	      1.32351018	      1.66815061	     53.86838064	    -12.63837833	     11.18649872	     69.45746327	     66.84439295	     59.04148476	     -4.72341134	     22.10168238	     72.34836069	     65.13040886
      1.17083330	    -20.31384302	      1.05641632	      1.00588646	     -0.84475480	      1.07494065	     -0.06107662	     43.52122355	     -3.31534051	     -0.79535444	     76.98175037	      1.34358501	     46.46855971	    -12.75415181	     -7.49999987	     46.21370311	     -2.18428680	     -1.28598320	     78.28099392	      1.36626109	     40.62639311	    -14.01503533	     -7.49999987	    -25.59196762	      1.24842291	      1.58938619	     53.59464454	    -12.38917793	     11.58816576	     70.21092189	     67.05756531	     59.63163578	     -5.41231462	     21.72591674	     72.38904668	     65.08350194
      1.17500000	    -20.52242887	      0.98097534	      1.09619241	     -0.83863155	      1.08013248	     -0.06104995	     42.70226113	     -3.20240705	     -0.95963804	     75.79960772	      1.32295273	     46.01030937	    -12.73509001	     -7.49999987	     45.64862431	     -2.29888492	     -1.29381732	     77.31719625	      1.34943964	     40.20672812	    -13.42863334	     -7.49999987	    -24.47861757	      1.23542682	      1.45887862	     53.19399125	    -12.19484532	     12.05773214	     71.17896461	     67.29955169	     59.74166614	     -5.76597141	     21.58693416	     72.81536074	     65.03363563
      1.17916670	    -20.64085847	      1.00745878	      1.09045399	     -0.82836794	      1.08070206	     -0.06259446	     41.69009831	     -3.27493207	     -0.95482614	     74.71621363	      1.30404393	     45.64160703	    -12.63627270	     -7.49999987	     44.69177092	     -2.22896638	     -1.37939249	     76.38605656	      1.33318819	     40.09502224	    -12.98504824	     -7.49999987	    -23.35136922	      1.15203332	      1.36624346	     52.66173164	    -12.16375887	     12.49775446	     72.07262598	     67.49765170	     59.52333269	     -6.20061320	     21.38430264	     73.18892628	     64.97730524
      1.18333330	    -20.59989633	      1.05759825	      0.95145439	     -0.82281533	      1.07899360	     -0.06429375	     40.69456287	     -3.39435930	     -0.88938809	     74.06521770	      1.29268191	     45.42488182	    -12.64565573	     -7.49999987	     43.59554018	     -2.18056651	     -1.51661291	     75.77747165	      1.32256638	     40.33612188	    -12.58283950	     -7.49999987	    -22.83057775	      1.19325822	      1.36345889	     52.60549150	    -12.90218073	     13.62719073	     74.72825073	     67.71644483	     59.50335868	     -6.70784974	     20.33352790	     74.95614241	     64.29473046
      1.18750000	    -20.61100269	      1.02413280	      0.81338720	     -0.81227641	      1.08277361	     -0.06342135	     39.38697894	     -3.39414818	     -0.90996123	     72.99113229	      1.27393558	     45.39045365	    -12.52413498	     -7.49999987	     42.30486639	     -2.18318783	     -1.56903164	     74.90621320	      1.30736005	     40.27743763	    -12.50147101	     -7.49999987	    -21.78518259	      1.29239426	      1.44088524	     52.02848724	    -13.28945446	     14.25657673	     76.21561861	     68.58982923	     58.68975312	     -6.80069908	     20.07236753	     76.51083259	     64.04194308
      1.19166670	    -20.65206535	      1.05666324	      0.78384400	     -0.80489065	      1.08665750	     -0.06388896	     38.19895123	     -3.48137945	     -0.92155006	     71.98890546	      1.25644343	     45.25747402	    -12.23805267	     -7.49999987	     41.06504539	     -2.16335585	     -1.65535619	     73.89708991	      1.28974753	     40.15778042	    -12.73409116	     -7.49999987	    -20.74060122	      1.38165394	      1.44322880	     51.47014631	    -13.56177929	     14.66394935	     77.36767933	     73.60941302	     57.60163675	     -6.96754050	     20.11804552	     78.52373610	     62.61897634
      1.19583330	    -20.69267948	      1.13048793	      0.71191356	     -0.79737122	      1.08506816	     -0.06345283	     37.39824701	     -3.57215023	     -1.00335095	     71.47445964	      1.24746465	     45.44830544	    -11.87784797	     -7.49999987	     40.07220906	     -2.24351183	     -1.76131114	     73.32337895	      1.27973438	     39.99197496	    -13.01515879	     -7.49999987	    -19.71607946	      1.31778836	      1.69134158	     50.92511555	    -14.45502144	     15.50341376	     79.17191952	     72.38384142	     56.66969988	     -6.81218494	     20.65211709	     80.31970094	     62.43046118
      1.20000000	    -20.85735773	      1.22582225	      0.70535833	     -0.79129054	      1.08921583	     -0.06113975	     36.58050171	     -3.55105343	     -1.00778888	     70.54111089	      1.23117464	     45.62283540	    -11.15908982	     -7.49999987	     39.48754788	     -2.18043430	     -1.64403343	     72.54553810	      1.26615850	     39.80900506	    -12.06234844	     -7.49999987	    -18.64200550	      1.14877061	      1.85905591	     50.15278156	    -15.23102641	     16.20077619	     81.09928809	     72.73832630	     55.93827203	     -6.88882790	     21.23433711	     82.08163208	     62.53356238
      1.20416670	    -20.85988320	      1.33698657	      0.70029695	     -0.78443927	      1.09187056	     -0.05856379	     35.63915007	     -3.43358758	     -1.03425325	     69.72656844	      1.21695820	     45.61349550	    -11.04385042	     -7.49999987	     38.71616343	     -2.40459226	     -1.89776920	     72.03212127	      1.25719768	     39.42704039	    -12.07862527	     -7.49999987	    -17.85179122	      0.90984652	      2.02646634	     49.73497428	    -15.77403438	     16.67020555	     82.82205753	     72.36752778	     55.79623827	     -7.25430489	     22.05547731	     83.39771949	     62.39820281
      1.20833330	    -20.92740365	      1.35879283	      0.75200373	     -0.77652059	      1.09552555	     -0.05640438	     34.61678005	     -3.15725748	     -1.14801368	     68.69358103	      1.19892916	     45.41566342	    -11.07790466	     -7.49999987	     37.90581214	     -2.76217902	     -2.11400001	     71.36200817	      1.24550200	     38.32734247	    -12.08719157	     -7.49999987	    -16.82066407	      0.70606682	      1.97902631	     49.34378535	    -15.88764173	     16.94362203	     83.27632145	     72.53123704	     55.69283795	     -7.48086190	     22.52811973	     83.77826588	     62.42996620
